<?xml version="1.0" encoding="UTF-8" standalone="no"?>
<!-- Created with Inkscape (http://www.inkscape.org/) -->

<svg
   xmlns:dc="http://purl.org/dc/elements/1.1/"
   xmlns:cc="http://creativecommons.org/ns#"
   xmlns:rdf="http://www.w3.org/1999/02/22-rdf-syntax-ns#"
   xmlns:svg="http://www.w3.org/2000/svg"
   xmlns="http://www.w3.org/2000/svg"
   xmlns:sodipodi="http://sodipodi.sourceforge.net/DTD/sodipodi-0.dtd"
   xmlns:inkscape="http://www.inkscape.org/namespaces/inkscape"
   width="210mm"
   height="174mm"
   viewBox="0 0 744.09449 616.53448"
   id="svg3455"
   version="1.1"
   inkscape:version="0.91 r13725"
   sodipodi:docname="ring2.svg">
  <defs
     id="defs3457" />
  <sodipodi:namedview
     id="base"
     pagecolor="#ffffff"
     bordercolor="#666666"
     borderopacity="1.0"
     inkscape:pageopacity="0.0"
     inkscape:pageshadow="2"
     inkscape:zoom="0.35"
     inkscape:cx="375"
     inkscape:cy="520"
     inkscape:document-units="px"
     inkscape:current-layer="layer1"
     showgrid="false"
     inkscape:window-width="681"
     inkscape:window-height="742"
     inkscape:window-x="0"
     inkscape:window-y="24"
     inkscape:window-maximized="0" />
  <metadata
     id="metadata3460">
    <rdf:RDF>
      <cc:Work
         rdf:about="">
        <dc:format>image/svg+xml</dc:format>
        <dc:type
           rdf:resource="http://purl.org/dc/dcmitype/StillImage" />
        <dc:title></dc:title>
      </cc:Work>
    </rdf:RDF>
  </metadata>
  <g
     inkscape:label="Layer 1"
     inkscape:groupmode="layer"
     id="layer1"
     transform="translate(0,-435.82705)">
    <path
       style="fill:#000000;fill-opacity:1;fill-rule:nonzero;stroke:none;stroke-width:1px;stroke-linecap:butt;stroke-linejoin:miter;stroke-opacity:1"
       id="path3346"
       d="m 255.78317,520.88008 c -15.87948,9.18939 18.65805,-10.8016 29.27873,-16.8068 1.34914,-0.76284 -2.63836,1.62937 -3.91631,2.50626 -3.48534,2.39155 -6.5245,5.11558 -9.51105,8.08714 -5.0686,5.13374 -9.66377,10.67378 -13.50012,16.78573 -4.01799,7.44577 -4.48858,15.93044 -4.89902,24.20237 -0.56933,6.51384 0.51281,12.71628 3.20764,18.62609 2.51867,5.86884 6.19644,11.06447 10.37598,15.84931 5.43817,4.91205 11.19592,9.44794 17.0011,13.91354 6.29647,5.43732 13.71223,9.21418 21.33536,12.40442 7.20639,2.9276 14.70246,4.85822 22.24879,6.71952 8.73087,1.875 17.68524,2.21396 26.58236,2.44811 9.03157,0.75297 17.58226,-0.12895 26.22847,-2.72938 2.89038,-1.16802 6.59678,-2.5827 9.35197,-4.03781 1.43501,-0.75789 5.57368,-3.32655 4.16274,-2.52474 -56.90785,32.33979 -36.07892,21.56921 -23.96632,12.91065 6.24114,-4.7433 12.37553,-9.70924 16.69784,-16.31604 2.99181,-5.12851 3.27894,-10.09308 1.67447,-15.64685 -2.17475,-5.95499 -5.61951,-11.34812 -9.84638,-16.05057 -3.53675,-4.48774 -7.64216,-8.42586 -11.9845,-12.1166 -5.08934,-3.38885 -9.62205,-7.54008 -14.6229,-11.05651 -6.07609,-3.94379 -12.33978,-7.55528 -18.38891,-11.54103 -6.06462,-4.24972 -12.83336,-7.43819 -19.39461,-10.86536 -7.98759,-3.02584 -15.51307,-7.0816 -23.48259,-10.14232 -8.9827,-3.57573 -18.20252,-6.36333 -27.74213,-7.94239 -9.19125,-1.32785 -18.39562,-1.83184 -27.58403,-0.44874 -12.98655,4.91876 -35.24616,19.5556 27.97411,-16.5024 0,0 -39.39471,15.21192 -39.39471,15.21192 l 0,0 c 15.8586,-9.11995 28.00122,-21.1709 45.22951,-23.85592 9.37363,-0.7009 18.80432,0.0755 28.06618,1.60936 9.71602,1.91171 19.13751,4.9221 28.35108,8.54732 7.99213,3.32047 15.76664,7.13562 23.76026,10.45086 6.7171,3.45489 13.53979,6.83601 19.75911,11.1355 6.11636,3.96715 12.30788,7.80215 18.4442,11.73721 5.015,3.71088 9.91931,7.57029 14.942,11.27196 4.45335,3.84874 8.53216,8.10813 12.20486,12.71095 4.45183,5.28747 8.32384,11.06781 10.79004,17.55683 2.15575,6.8172 2.69605,11.94964 -0.21215,18.73682 -3.69802,7.50941 -9.72183,12.92332 -16.2587,18.03227 -18.67964,14.42964 -39.40165,26.94417 -61.74638,34.61792 -8.96042,2.10458 -17.93888,2.44975 -27.12166,1.83188 -9.08098,-0.4499 -18.22034,-1.00677 -27.08333,-3.17533 -7.6986,-1.99842 -15.38151,-3.99234 -22.65026,-7.29846 -7.77319,-3.59909 -15.35646,-7.59146 -21.86748,-13.24565 -6.0578,-4.59454 -12.14395,-9.21839 -17.54179,-14.59175 -4.38677,-5.10285 -8.41719,-10.58127 -11.11355,-16.78746 -3.03618,-6.46472 -4.46875,-13.38578 -3.8976,-20.55747 0.39596,-8.723 0.56893,-17.71926 3.99065,-25.89023 3.21193,-6.66108 7.913,-12.51125 13.11653,-17.72585 14.57978,-17.22146 37.20276,-25.31343 56.06736,-36.53704 0,0 -33.11486,26.48876 -33.11486,26.48876 z"
       inkscape:connector-curvature="0"
       inkscape:export-xdpi="120.02532"
       inkscape:export-ydpi="120.02532" />
    <path
       style="fill:#000000;fill-opacity:1;fill-rule:nonzero;stroke:none;stroke-width:1px;stroke-linecap:butt;stroke-linejoin:miter;stroke-opacity:1"
       id="path3348"
       d="m 75.117126,657.35277 c -5.61826,5.4673 -9.770517,12.13495 -13.404837,19.01959 -3.18547,5.48746 -4.3507,11.6935 -5.944,17.74341 -1.39808,5.40212 -2.31152,10.95353 -2.14641,16.54065 1.0363,4.99976 3.60312,9.13753 7.70368,12.13536 3.76229,2.1168 6.794197,5.33957 10.360637,7.70687 0.66988,0.44464 5.61412,2.99693 6.4115,3.41222 5.64832,4.61821 12.11607,7.71749 19.1229,9.61133 9.158424,2.1255 18.417054,2.10815 27.708324,1.25435 10.09125,-0.78637 19.98889,-3.11029 29.72352,-5.8008 4.43178,-1.70445 8.99663,-3.02293 13.26387,-5.13692 1.25928,-0.62384 4.91093,-2.73502 3.69222,-2.03523 -34.35955,19.72942 -42.7416,25.6001 -29.51645,16.52772 4.52233,-3.54484 8.46097,-7.47727 10.08418,-13.06731 0.63114,-5.45307 0.98592,-10.88956 1.85139,-16.32483 0.76644,-6.17824 2.08644,-12.37221 -0.11783,-18.33972 -2.22705,-5.42723 -5.35329,-10.58193 -9.55801,-14.7065 -3.70299,-4.55483 -7.61272,-8.63398 -12.17155,-12.35296 -5.79725,-3.76657 -11.96992,-6.67939 -18.46203,-9.01864 -7.54488,-2.32165 -15.171314,-4.01273 -23.021224,-4.87282 -8.78622,-0.75887 -17.61485,-0.72952 -26.426287,-0.7644 -3.64591,0.26753 -7.35187,1.23774 -10.72874,2.6626 -0.95735,0.40395 -3.638131,2.00957 -2.735009,1.49568 35.242266,-20.05315 44.455726,-26.82838 31.430366,-17.44403 -2.65373,1.97877 -4.73407,4.53318 -6.84667,7.04606 0,0 -38.711788,16.63677 -38.711788,16.63677 l 0,0 c 1.951042,-2.79803 3.981558,-5.49714 6.340173,-7.97373 15.374558,-13.26516 34.348365,-26.31038 55.182905,-27.04991 8.947654,0.054 17.930564,0.0343 26.827614,1.10272 8.05986,1.15682 15.96362,3.06645 23.69371,5.63932 6.74831,2.74313 13.26966,5.87739 19.21739,10.13748 4.65554,3.83268 8.67096,8.11059 12.5121,12.73817 4.3443,4.7575 7.92996,10.1639 10.32088,16.16319 1.08007,2.61171 1.93801,4.12182 2.19787,6.98594 0.39745,4.38054 -0.96841,8.90864 -1.04908,13.2754 -0.69068,5.51732 -1.69985,10.92159 -1.60199,16.51287 -0.96307,6.6475 -3.97396,11.4687 -9.12502,15.86477 -16.83352,14.99258 -38.26222,25.11384 -59.7449,31.74963 -9.93291,2.47831 -19.978,4.65031 -30.230394,5.22391 -9.65578,0.54882 -19.32781,0.13809 -28.714717,-2.42238 -7.14482,-2.34488 -13.688695,-5.74041 -19.71068,-10.2694 -6.077248,-3.46464 -11.67839,-7.53621 -17.304562,-11.68837 -4.665362,-4.09099 -7.909286,-9.05087 -9.407429,-15.13145 -0.672663,-5.96509 0.252758,-11.96661 1.547495,-17.80524 1.638748,-6.30276 2.745275,-12.80408 5.671552,-18.68295 3.699686,-7.0282 7.452753,-14.00502 12.660072,-20.07978 0,0 39.155259,-16.21864 39.155259,-16.21864 z"
       inkscape:connector-curvature="0"
       inkscape:export-xdpi="120.02532"
       inkscape:export-ydpi="120.02532" />
    <path
       style="fill:#000000;fill-opacity:1;fill-rule:nonzero;stroke:none;stroke-width:1px;stroke-linecap:butt;stroke-linejoin:miter;stroke-opacity:1"
       id="path3350"
       d="m 123.95925,900.76364 c -12.77131,6.7075 -33.528044,17.92252 24.03967,-14.0785 1.50583,-0.83707 -2.89741,1.87218 -4.26226,2.92357 -4.05792,3.12595 -4.18463,3.62911 -7.54656,7.42643 -6.13121,8.39521 -6.40579,12.09277 -4.88705,21.89306 1.9975,6.25417 6.05674,11.75827 10.9554,16.05952 4.52943,4.23446 8.94658,8.6192 13.8452,12.44657 6.22896,5.20307 13.47237,8.86003 20.73497,12.36347 9.17817,4.02407 19.11758,5.07503 29.00504,5.69045 8.82113,0.13691 17.72161,0.84333 26.50184,-0.19549 9.47385,-0.90341 18.87188,-1.96355 28.16452,-4.06167 17.1557,-4.16361 54.06055,-27.31391 -10.08949,9.36742 5.68078,-3.88691 11.73997,-7.38838 16.03525,-12.86421 3.10985,-5.06462 3.32853,-8.50038 -0.0744,-13.34127 -4.37411,-6.21664 -10.92061,-10.55487 -16.85581,-15.17777 -9.4761,-6.72224 -18.61329,-13.88984 -27.88092,-20.90145 -8.36084,-5.22851 -16.94364,-10.24742 -26.00826,-14.15924 -6.84858,-3.39278 -13.47405,-6.93434 -21.01914,-8.44359 -8.70234,-1.32338 -17.26435,-3.09819 -26.10331,-2.89221 -5.62281,0.0348 -11.22021,1.21457 -16.22766,3.84519 -0.91998,0.4833 -3.48959,2.254 -2.58393,1.74437 11.3677,-6.39677 22.65218,-12.94029 33.97827,-19.41044 -0.65642,0.59521 -1.31284,1.19042 -1.96926,1.78564 0,0 -39.01795,16.37126 -39.01795,16.37126 l 0,0 c 0.58473,-0.76501 1.16946,-1.53003 1.75418,-2.29504 20.95627,-12.59628 34.66883,-26.70478 57.96896,-26.62879 9.06106,0.34932 17.97574,1.88424 26.88695,3.51098 7.53274,2.10046 14.28274,5.87462 21.32256,9.20589 9.11875,4.35281 17.94275,9.41074 26.29959,15.08743 9.23131,7.07736 18.43776,14.1956 27.99328,20.82874 6.41182,4.76994 13.2986,9.44062 17.91181,16.08075 3.86809,5.63551 5.27706,11.29318 2.32749,17.76572 -3.5347,6.71818 -9.46106,10.4309 -15.54427,14.70083 -20.58737,11.95156 -39.24094,25.833 -62.46218,31.11509 -9.45925,1.79699 -19.00489,2.86367 -28.591,3.73695 -8.9134,0.42043 -17.84479,0.14403 -26.74716,-0.43192 -10.28936,-0.87589 -20.52207,-2.48765 -29.94824,-6.96161 -7.54982,-3.67967 -15.0617,-7.61067 -21.57517,-12.97755 -4.81249,-4.05038 -9.3997,-8.34372 -13.88806,-12.74066 -5.38776,-5.21164 -9.997364,-11.32341 -12.324134,-18.53326 -1.60953,-10.49254 -2.61951,-15.62693 3.6808,-25.16009 14.160724,-19.59259 38.262824,-28.3098 59.422434,-38.95044 0,0 -33.22202,26.25587 -33.22202,26.25587 z"
       inkscape:connector-curvature="0"
       inkscape:export-xdpi="120.02532"
       inkscape:export-ydpi="120.02532" />
    <path
       style="fill:#000000"
       id="path3366"
       d="m 479.83311,880.24722 c -12.19814,-5.55008 -25.30251,-6.45758 -38.48481,-7.11511 -12.55831,-0.50807 -23.35665,-1.25306 -35.33574,2.87187 -35.62162,20.71332 121.14792,-70.32714 -13.24437,7.50704 -10.57344,6.12368 21.16727,-12.21294 31.81358,-18.20901 2.60538,-1.46737 -5.01368,3.26247 -7.45808,4.9847 -6.75428,4.6467 -11.00383,11.12562 -14.30608,18.46008 -2.65579,6.97578 -4.97721,14.02983 -6.94513,21.22799 -1.64793,5.88042 -2.22458,11.95007 -2.52342,18.02443 0.79563,7.27998 4.91392,13.68989 9.52652,19.17894 6.16343,6.54987 12.97973,12.77313 20.93144,17.05829 8.08913,4.4243 17.26212,6.4577 26.23682,8.27645 8.43397,1.51363 16.73217,3.3258 25.29062,4.01072 14.2806,0.70694 28.60508,1.15748 42.88879,0.40423 12.98738,-0.20197 25.32177,-3.32519 36.82035,-9.24118 -61.15667,35.19174 -27.87429,19.0089 -17.81193,5.18076 4.45374,-6.1163 7.17837,-13.05128 9.44339,-20.201 1.9678,-7.87542 4.20795,-15.66372 3.64649,-23.8395 -0.30729,-7.69932 -4.71716,-13.38517 -9.26582,-19.17906 -4.69106,-5.54941 -10.97223,-9.22351 -16.62323,-13.65381 -4.4597,-5.159 -10.55466,-8.2316 -15.85817,-12.30514 -4.59832,-2.54459 -8.561,-6.15701 -13.20662,-8.61379 -2.18398,-1.15497 -4.48471,-2.07772 -6.68009,-3.21086 -6.80846,-2.312 -14.04709,-4.75286 -21.27213,-5.17738 0,0 34.4243,-24.36949 34.4243,-24.36949 l 0,0 c 7.51943,1.38141 15.12124,3.22672 22.08077,6.42808 7.05979,3.63844 13.70611,7.84737 20.22053,12.40066 5.52925,3.87126 11.37231,7.31847 15.99559,12.34382 5.95626,4.55909 12.24358,8.76636 17.07064,14.61057 4.96439,6.40249 9.85094,12.86314 10.49277,21.25894 0.93605,8.72075 -1.04845,16.82027 -3.04196,25.26923 -1.92159,7.46631 -4.42622,14.82207 -8.81102,21.24355 -10.74256,19.21762 -37.32986,27.55469 -53.51237,37.85171 -11.92082,5.10717 -24.4742,7.54335 -37.47126,7.65575 -14.52065,0.4563 -29.07572,0.1429 -43.58465,-0.5497 -8.69718,-0.7729 -17.13533,-2.78586 -25.70803,-4.39048 -9.26682,-2.18469 -18.69801,-4.4101 -26.95132,-9.3464 -8.11966,-4.95482 -15.34072,-11.34173 -21.79492,-18.31237 -5.15554,-6.44677 -9.60114,-13.52925 -11.23013,-21.74298 0.22055,-6.35656 0.64719,-12.72943 2.23096,-18.91746 1.94539,-7.38119 4.2256,-14.57474 6.7772,-21.76377 3.00658,-7.81655 6.73119,-15.26431 13.49596,-20.53714 14.15681,-11.39724 32.74781,-19.94036 47.23187,-28.58275 10.35431,-6.17823 -41.87979,23.91483 -31.298,18.13488 48.8633,-26.68994 25.15847,-17.12389 45.18255,-24.97735 11.73771,-2.91849 23.72276,-1.80968 35.71595,-1.35864 13.65329,0.93748 27.15656,2.48246 39.97869,7.60178 0,0 -35.0765,23.6099 -35.0765,23.6099 z"
       inkscape:connector-curvature="0"
       inkscape:export-xdpi="120.02532"
       inkscape:export-ydpi="120.02532" />
    <path
       style="fill:#008000"
       d="m 452.55897,971.45408 c -9.72915,-2.11469 -22.25704,-6.01241 -27.83976,-8.66158 -12.09876,-5.74124 -26.52483,-21.41567 -29.08006,-31.59649 -2.29528,-9.14512 5.93394,-40.20206 13.17664,-49.72845 5.11865,-6.7326 6.7925,-7.10107 29.14299,-6.41535 13.04184,0.40013 28.01065,2.14604 33.26403,3.87981 6.97612,2.30233 10.40514,2.29877 12.71712,-0.0132 1.74105,-1.74104 5.15839,-3.15317 7.59411,-3.13806 5.76228,0.0357 40.46153,26.13084 50.30973,37.83476 6.7535,8.02608 7.46947,10.81649 6.12292,23.86327 -1.52012,14.72858 -8.52326,32.1035 -14.5456,36.08789 -5.26357,3.48239 -61.93269,2.00187 -80.86212,-2.11258 z"
       id="path3368"
       inkscape:connector-curvature="0"
       inkscape:export-xdpi="120.02532"
       inkscape:export-ydpi="120.02532" />
    <path
       style="fill:#008000"
       d="m 320.90589,619.895 c -19.88868,-5.35453 -27.94782,-9.75126 -44.3248,-24.18177 -16.7367,-14.74748 -22.04705,-24.52102 -22.04705,-40.57694 0,-13.70886 8.24671,-31.76063 15.13289,-33.12538 6.47752,-1.28376 40.33969,12.71005 62.88094,25.98604 34.84089,20.52003 60.72052,49.01843 54.50916,60.02494 -7.55914,13.39476 -13.39172,16.30408 -32.30675,16.11478 -10.33322,-0.10343 -25.56319,-2.01217 -33.84439,-4.24167 z"
       id="path3372"
       inkscape:connector-curvature="0"
       inkscape:export-xdpi="120.02532"
       inkscape:export-ydpi="120.02532" />
    <path
       style="fill:#008000"
       d="m 86.738126,737.18953 c -8.21631,-4.18035 -18.98409,-11.37955 -23.928397,-15.99822 -8.1975,-7.65761 -8.82231,-9.46311 -7.09058,-20.48925 1.04449,-6.6504 4.92471,-17.87736 8.6227,-24.94879 l 6.723617,-12.85714 18.16285,0.009 c 22.396674,0.0117 42.395574,9.1732 55.159784,25.26872 7.81899,9.85964 8.64903,12.78831 8.05424,28.41822 -0.36586,9.61419 -2.32529,19.08791 -4.37103,21.13364 -2.03934,2.03935 -13.31236,4.46302 -25.05116,5.38594 -19.2966,1.51712 -22.77578,0.94919 -36.282024,-5.9226 z"
       id="path3374"
       inkscape:connector-curvature="0"
       inkscape:export-xdpi="120.02532"
       inkscape:export-ydpi="120.02532" />
    <path
       style="fill:#008000"
       d="m 187.39118,961.85987 c -25.774,-6.78725 -55.71429,-33.92985 -55.71429,-50.50821 0,-2.57696 3.53572,-9.788 7.85715,-16.02453 7.82532,-11.29323 7.91849,-11.33251 23.00469,-9.69992 29.71648,3.21585 100.89861,48.08947 102.86415,64.84615 0.58842,5.01641 -0.79481,8.07871 -4.28571,9.48805 -7.6081,3.07151 -63.77882,4.51792 -73.72599,1.89846 z"
       id="path3376"
       inkscape:connector-curvature="0"
       inkscape:export-xdpi="120.02532"
       inkscape:export-ydpi="120.02532" />
    <path
       style="fill:#000000"
       id="path3399"
       d="m 110.58805,761.26459 c -0.19802,4.08679 -0.14997,8.1801 -0.12788,12.2701 -0.19365,4.59499 0.15029,9.14038 0.61543,13.70584 0.98456,5.53677 1.57834,11.12099 2.28589,16.69485 0.6207,4.93682 1.83717,9.75386 3.24327,14.51328 0.67199,3.453 1.90509,6.7117 3.10959,10.00647 0.44534,3.02055 2.38496,4.98507 4.2427,7.26671 2.5067,2.85521 4.50503,6.15271 6.22721,9.52894 1.48187,3.23948 3.65405,5.8981 5.88204,8.62182 1.94006,2.38973 4.43866,4.35452 6.92325,6.1689 2.57463,1.7245 4.52694,4.02306 6.48236,6.37084 1.2166,1.38763 0.61866,0.65216 1.78432,2.21409 0,0 -20.4831,12.17178 -20.4831,12.17178 l 0,0 c -1.10829,-1.43233 -0.52104,-0.71977 -1.76716,-2.13321 -1.7846,-2.24985 -3.72292,-4.31318 -6.13946,-5.91873 -2.55782,-2.02873 -5.18695,-4.05231 -7.17977,-6.66392 -2.32911,-2.8509 -4.50836,-5.71274 -6.0578,-9.08855 -1.68918,-3.20481 -3.60331,-6.36244 -6.03199,-9.06283 -1.99124,-2.38758 -4.375354,-4.66473 -4.708814,-7.91233 -1.26096,-3.33664 -2.29517,-6.75544 -3.04571,-10.23894 -1.40429,-4.89381 -2.50316,-9.87838 -3.21538,-14.92294 -0.8116,-5.56926 -1.20995,-11.19956 -2.39958,-16.71501 -0.50721,-4.61384 -1.1015,-9.21225 -0.84539,-13.86723 0.0217,-4.04651 0.0731,-8.09665 -0.12787,-12.13979 0,0 21.333844,-10.87014 21.333844,-10.87014 z"
       inkscape:connector-curvature="0" />
    <path
       style="fill:#000000"
       id="path3401"
       d="m 207.29533,600.93445 c -4.86056,1.52032 -9.50273,3.66173 -14.31806,5.34278 -5.14809,1.31429 -10.23704,2.82173 -15.44024,3.90636 -4.50203,0.51358 -8.56975,2.57211 -12.76874,4.1217 -3.91147,1.32046 -8.01273,1.99144 -11.93367,3.25822 -1.75198,0.95291 -3.712,1.47054 -5.46971,2.40824 -0.59307,0.31639 -2.28815,1.4109 -1.70392,1.07848 17.85066,-10.15694 24.34524,-14.56391 16.64904,-9.40882 -3.53334,2.53655 -6.25158,5.90296 -8.97626,9.24124 -1.23886,1.76077 -2.21572,3.68073 -3.22041,5.57842 0,0 -21.56951,9.73285 -21.56951,9.73285 l 0,0 c 1.00101,-2.01577 2.17094,-3.9257 3.10494,-5.9756 4.21184,-6.01377 -1.55803,2.02564 2.81986,-3.46042 0.47439,-0.59447 0.79132,-1.30455 1.27028,-1.89534 1.34184,-1.65515 3.1179,-2.96323 4.59633,-4.48483 9.13046,-7.57811 20.08196,-13.23355 31.25295,-17.26298 3.95749,-1.01453 7.94554,-1.96518 11.78396,-3.38156 4.19007,-1.62248 8.39085,-3.18587 12.87846,-3.77364 5.13644,-1.18583 10.22811,-2.59665 15.26246,-4.1572 4.88453,-1.82709 9.73317,-3.75795 14.58842,-5.65635 0,0 -18.80618,14.78845 -18.80618,14.78845 z"
       inkscape:connector-curvature="0" />
    <path
       style="fill:#000000"
       id="path3407"
       d="m 312.11945,933.83116 c 4.77368,-2.23404 10.22457,-2.45617 15.40858,-2.17905 5.0977,0.5951 10.25431,0.69228 15.32963,1.44263 5.07844,0.8171 10.20717,1.1803 15.34113,1.39298 4.05422,0.12906 8.11102,0.10808 12.16665,0.0939 0.57073,-0.002 1.14146,-0.004 1.71218,-0.006 0,0 -19.21454,13.96109 -19.21454,13.96109 l 0,0 c -0.56756,-0.002 -1.13513,-0.004 -1.70269,-0.005 -4.03291,-0.0255 -8.06664,-0.0791 -12.09513,-0.28383 -5.15903,-0.28936 -10.29242,-0.85029 -15.41018,-1.56074 -5.03274,-0.50607 -10.07948,-0.92289 -15.12318,-1.29345 -5.30079,0.0691 -10.42499,0.80299 -15.2681,3.08724 0,0 18.85565,-14.64888 18.85565,-14.64888 z"
       inkscape:connector-curvature="0" />
    <path
       style="fill:#000000"
       id="path3501"
       d="m 612.65764,595.45353 c -5.63793,-1.96748 -11.31404,-3.51486 -17.24138,-4.35559 -8.33961,-0.92889 -16.74191,-0.93852 -25.12155,-1.01404 -9.30661,-0.20299 -18.61319,0.0958 -27.91794,0.0856 -7.9456,-0.0858 -15.89068,0.0909 -23.83617,0.0576 -9.68975,-0.0459 -19.4076,-0.54192 -29.07131,0.26589 -9.83688,1.91396 -19.60846,4.61288 -28.93989,8.30284 -15.60265,5.36799 -51.03491,27.34962 10.73948,-8.08038 -7.29689,4.42908 -13.67167,10.0535 -19.6808,16.06277 -5.02761,4.59498 -8.02414,10.68109 -11.27363,16.54369 -3.19409,5.90093 -6.91371,11.55715 -11.14213,16.76837 -4.07732,5.0487 -8.30497,9.97811 -12.21647,15.15791 -4.61724,5.47123 -7.07791,12.08521 -9.49866,18.70493 -2.02977,5.49779 -2.67901,11.29869 -3.02787,17.10498 -0.2398,5.67725 -0.19501,11.36155 -0.18099,17.04242 -0.1196,5.70139 1.25026,11.28669 1.98722,16.91479 0.57542,5.67038 1.58968,11.35567 3.70082,16.66265 1.95897,5.65407 4.6407,10.47487 9.33183,14.25907 4.38848,3.77017 8.34266,8.13696 13.69286,10.54078 7.80129,2.67749 15.8511,3.92361 24.03321,4.66495 9.48562,0.13718 18.85949,1.07873 28.27415,2.13557 8.72942,0.87209 17.50048,1.10926 26.26715,1.18685 6.31185,-0.29395 12.76427,0.64054 18.98817,-0.58228 5.65747,-1.27921 11.4245,-1.8274 17.20389,-2.13993 5.82344,-0.22996 11.65383,-0.2632 17.48073,-0.18886 6.45407,0.0412 12.90834,0.014 19.36247,8.9e-4 6.35184,-0.21178 12.74635,0.55164 19.0346,-0.4795 6.42481,-1.1257 12.84015,-1.64062 19.09324,-3.54839 6.11558,-1.65316 12.42468,-3.17969 18.29484,-5.61066 3.08331,-1.27688 5.99129,-2.94463 9.03514,-4.31292 4.53246,-2.41722 9.24952,-4.42142 13.76333,-6.87727 1.69584,-0.92266 6.71625,-3.81138 5.04063,-2.85248 -31.95774,18.28849 -39.89043,23.75999 -26.45687,14.72386 8.80833,-5.9507 17.90204,-11.30603 25.9768,-18.26438 7.38752,-6.90592 11.90332,-15.67127 15.39053,-25.00205 2.66999,-8.92281 4.17493,-18.18065 5.36412,-27.40718 0.91443,-9.98682 2.52117,-19.87974 3.27803,-29.88241 0.8192,-9.78974 1.70048,-17.42375 -2.60719,-26.48777 -3.31349,-5.92938 -8.84401,-9.98168 -14.41409,-13.63812 -4.37787,-3.15236 -9.45727,-5.01091 -14.08383,-7.76666 -5.8661,-2.6944 -11.85589,-5.12393 -17.63551,-8.00509 -5.91293,-2.28086 -11.7001,-4.85415 -17.56119,-7.26378 -5.30164,-1.39125 -10.51907,-3.01695 -15.82996,-4.38833 -3.30761,-1.3581 -1.64775,-0.72547 -4.97841,-1.90094 0,0 34.61257,-23.39561 34.61257,-23.39561 l 0,0 c 3.30814,1.16779 1.67696,0.62472 4.89126,1.63602 5.31369,1.62498 10.72692,2.93531 15.90091,4.96902 5.84594,2.53959 11.8068,4.80742 17.58994,7.48635 5.97988,2.77144 12.05903,5.31489 18.0493,8.06197 4.82111,2.57372 9.7998,4.92316 14.20009,8.19441 5.84957,4.4291 11.62744,9.08739 15.1016,15.71758 4.66499,10.02124 4.1722,17.71377 3.30465,28.52562 -0.83199,10.03999 -2.19428,19.99907 -3.20285,30.01021 -0.97714,9.47626 -2.66099,18.88622 -4.76186,28.17042 -3.47641,9.92643 -7.91741,19.41745 -15.31339,27.10006 -7.53187,7.38371 -16.20814,13.05521 -25.18624,18.53064 -19.35452,14.04315 -40.90564,24.99188 -62.41173,35.37498 -9.06093,4.08945 -18.45251,7.2788 -28.1007,9.70005 -6.46884,1.55524 -13.08378,2.27688 -19.67412,3.14968 -6.45145,0.30806 -12.91707,0.15612 -19.37471,0.19169 -6.43583,-0.0244 -12.87188,-0.0731 -19.30769,-0.0248 -5.8107,0.0973 -11.62877,0.0723 -17.42842,0.4971 -5.72635,0.48847 -11.37881,1.41836 -17.05715,2.28062 -6.34357,0.29639 -12.69822,0.0395 -19.04421,-0.0948 -8.72482,-0.31069 -17.44888,-0.74241 -26.13065,-1.69829 -9.40454,-0.90783 -18.7844,-1.68126 -28.22368,-2.13438 -8.69664,-0.89327 -17.39197,-2.28468 -25.56878,-5.51248 -5.31085,-3.03688 -9.61758,-7.33442 -14.13575,-11.40802 -4.94952,-4.4599 -8.29503,-9.53745 -10.35482,-15.90126 -2.4293,-5.56415 -3.7195,-11.58983 -4.3226,-17.62196 -0.66934,-5.79917 -2.13264,-11.51856 -2.22552,-17.35402 -0.0187,-5.74846 -0.0664,-11.49858 0.0898,-17.24564 0.25529,-6.16758 0.72527,-12.36337 2.65869,-18.27225 2.38082,-6.8792 4.75352,-13.86434 9.019,-19.84897 3.86675,-5.25461 8.00433,-10.25735 12.00717,-15.41044 4.49325,-4.80305 8.2661,-10.21426 11.54934,-15.91486 3.17508,-6.21556 6.35599,-12.6421 11.08132,-17.8267 6.20035,-6.03647 12.1566,-12.34864 19.5649,-16.99352 19.5252,-11.3984 38.24735,-24.53743 59.71751,-31.97043 9.5405,-3.3199 19.42848,-6.01817 29.46897,-7.21491 9.90492,-0.46892 19.82006,-0.15565 29.73187,-0.41994 7.90563,-0.037 15.81119,0.13052 23.71681,0.023 9.24511,-0.0372 18.49276,0.21259 27.73979,0.0943 8.62665,0.0689 17.30705,0.0269 25.86614,1.22986 6.14428,1.05697 12.02593,3.05825 18.15365,4.17329 0,0 -34.80776,24.00902 -34.80776,24.00902 z"
       inkscape:connector-curvature="0" />
    <path
       style="fill:#008000"
       d="m 460.49881,770.01511 c -17.23402,-1.64405 -24.70346,-3.84344 -33.31099,-9.80846 -15.66605,-10.85658 -18.75924,-20.33468 -18.75924,-57.48167 0,-29.88155 0.43572,-32.25986 7.85181,-42.85714 4.3185,-6.17095 12.26698,-17.64849 17.66329,-25.50563 28.63475,-41.69281 31.63421,-42.85082 110.19918,-42.54488 52.57098,0.20471 56.97054,0.64651 77.98095,7.83085 29.09442,9.9486 53.12883,22.26748 61.99605,31.7762 6.25192,6.70423 7.05577,9.94051 6.59432,26.54843 -0.73478,26.44486 -6.2985,57.34054 -12.54882,69.68446 -6.97403,13.77318 -23.21294,26.8424 -42.59393,34.27999 -22.5807,8.66549 -121.20913,13.21621 -175.07262,8.07785 z"
       id="path3505"
       inkscape:connector-curvature="0" />
    <path
       style="fill:#000000"
       id="path3509"
       d="m 424.63399,586.01296 c 1.30732,4.93486 3.83975,9.24856 6.18014,13.73306 1.09653,3.32251 3.54619,5.67451 5.47805,8.46926 0,0 -35.99332,21.25777 -35.99332,21.25777 l 0,0 c -2.14149,-2.8613 -4.49254,-5.55742 -5.70242,-8.99386 -2.49037,-4.64063 -4.78293,-9.29968 -7.11833,-14.00287 0,0 37.15588,-20.46336 37.15588,-20.46336 z"
       inkscape:connector-curvature="0" />
    <path
       style="fill:#000000"
       id="path3511"
       d="m 521.76465,786.61079 c -1.64869,5.36915 -3.54195,10.74882 -5.39247,16.09862 -2.77359,6.68903 -6.08554,13.12151 -8.97792,19.75663 -4.10716,7.56141 -6.46417,15.88248 -10.46447,23.47409 0,0 -37.60959,16.61062 -37.60959,16.61062 l 0,0 c 5.24133,-7.2309 5.97943,-15.38163 10.66761,-22.92441 2.84888,-6.52734 5.56688,-13.08801 8.62989,-19.52282 2.29179,-4.53657 2.23595,-10.10804 5.33194,-14.22502 0,0 37.81501,-19.26771 37.81501,-19.26771 z"
       inkscape:connector-curvature="0" />
  </g>
</svg>
